<?xml version="1.0" standalone="no"?>
<!DOCTYPE svg PUBLIC "-//W3C//DTD SVG 20010904//EN"
 "http://www.w3.org/TR/2001/REC-SVG-20010904/DTD/svg10.dtd">
<svg version="1.0" xmlns="http://www.w3.org/2000/svg"
 width="842.000000pt" height="842.000000pt" viewBox="0 0 842.000000 842.000000"
 preserveAspectRatio="xMidYMid meet">
<metadata>
Created by potrace 1.14, written by Peter Selinger 2001-2017
</metadata>
<g transform="translate(0.000000,842.000000) scale(0.100000,-0.100000)"
fill="#000000" stroke="none">
<path d="M3757 6883 c-1 -1 -40 -4 -87 -8 -112 -8 -176 -16 -275 -34 -58 -10
-78 -14 -137 -27 -15 -3 -30 -5 -33 -5 -2 0 -23 -6 -45 -14 -22 -8 -44 -14
-48 -15 -5 0 -70 -19 -122 -35 -3 -1 -12 -5 -20 -8 -8 -4 -40 -15 -70 -26 -75
-25 -223 -93 -312 -142 -40 -22 -81 -43 -90 -46 -10 -3 -18 -9 -18 -14 0 -5
-5 -9 -10 -9 -14 0 -183 -114 -268 -179 -154 -119 -340 -304 -467 -465 -16
-21 -35 -43 -40 -50 -11 -12 -106 -155 -147 -221 -46 -74 -116 -209 -158 -304
-40 -91 -115 -301 -124 -345 -3 -11 -14 -56 -25 -100 -33 -124 -57 -272 -68
-416 -12 -155 -6 -448 11 -540 3 -14 7 -43 10 -66 7 -64 16 -116 26 -154 5
-19 16 -66 25 -105 43 -186 185 -546 254 -644 12 -16 21 -34 21 -40 0 -7 5
-17 11 -24 5 -7 38 -55 72 -108 134 -203 288 -381 471 -542 45 -39 83 -73 86
-77 3 -3 21 -17 40 -30 19 -13 37 -27 40 -30 36 -41 449 -285 500 -295 3 0 22
-8 43 -18 70 -32 102 -45 192 -75 102 -34 223 -68 274 -77 19 -3 37 -8 41 -10
13 -8 208 -37 345 -51 49 -5 343 -4 405 1 210 17 345 43 620 120 43 12 187 68
275 108 196 88 371 194 560 339 121 94 283 252 403 394 l44 51 196 1 c182 0
302 5 457 17 91 8 216 21 290 32 28 4 55 8 60 8 6 1 30 5 55 9 25 4 59 10 75
12 121 18 176 96 130 184 -12 24 -112 100 -130 100 -3 0 -42 22 -87 49 -46 27
-180 104 -298 171 -208 119 -279 160 -310 179 -13 8 -11 21 12 93 27 84 62
218 72 273 3 17 7 41 10 55 11 47 17 96 33 255 9 89 9 358 0 450 -23 234 -60
411 -132 630 -49 148 -151 371 -225 490 -23 39 -48 79 -54 90 -19 35 -107 157
-170 235 -133 165 -255 286 -420 417 -45 36 -89 71 -99 79 -9 8 -21 14 -26 14
-5 0 -11 4 -13 8 -3 10 -124 92 -133 92 -4 0 -19 8 -33 19 -125 88 -534 257
-716 296 -12 2 -32 7 -46 10 -160 39 -397 67 -588 69 -63 0 -114 0 -115 -1z
m363 -257 c19 -2 49 -7 66 -10 17 -3 48 -8 68 -11 21 -2 46 -7 55 -10 9 -2 30
-7 46 -9 17 -2 59 -11 95 -20 329 -86 602 -217 858 -410 52 -39 104 -78 115
-86 41 -28 282 -276 327 -335 25 -33 50 -66 57 -73 7 -7 20 -26 30 -42 9 -17
21 -30 25 -30 4 0 8 -4 8 -9 0 -5 18 -36 40 -69 22 -33 40 -63 40 -67 0 -5 6
-16 14 -24 13 -15 94 -172 129 -251 31 -72 70 -177 94 -255 21 -70 29 -102 49
-190 13 -56 33 -179 40 -240 3 -39 8 -83 10 -100 4 -39 4 -307 0 -365 -13
-161 -50 -359 -97 -512 l-21 -68 -46 26 c-123 69 -330 189 -352 204 -14 10
-27 17 -30 17 -3 0 -36 18 -75 40 -74 43 -121 70 -195 111 -25 13 -49 28 -55
32 -5 4 -30 19 -55 32 -61 34 -105 59 -168 97 -29 17 -57 31 -62 31 -6 0 -10
5 -10 10 0 6 -4 10 -9 10 -6 0 -128 68 -273 151 -145 83 -285 164 -313 179
-169 93 -290 169 -287 179 30 134 12 368 -38 508 l-19 52 52 29 c66 37 105 73
156 146 69 99 110 241 107 371 -1 58 -4 68 -32 96 -23 23 -43 32 -75 36 -83 8
-126 -37 -135 -137 -8 -100 -29 -190 -45 -190 -4 0 -11 -10 -15 -22 -11 -36
-76 -92 -130 -112 -27 -10 -63 -24 -81 -32 -17 -8 -38 -14 -46 -14 -9 0 -18
-4 -22 -9 -3 -5 -20 -13 -38 -17 -17 -3 -55 -17 -84 -30 -28 -13 -55 -24 -58
-24 -14 0 -174 -85 -239 -127 -38 -25 -105 -80 -148 -124 -43 -44 -78 -75 -78
-70 0 19 -138 145 -215 196 -99 66 -213 119 -418 196 -224 84 -230 87 -275
160 -35 58 -53 119 -58 197 -5 84 -23 126 -62 146 -99 51 -193 -16 -187 -134
9 -176 62 -311 167 -425 l60 -66 -20 -47 c-26 -63 -32 -86 -55 -207 -14 -71
-15 -246 -3 -320 4 -22 15 -71 26 -110 10 -38 21 -117 24 -175 11 -173 22
-261 60 -445 6 -27 54 -190 72 -244 46 -136 160 -376 229 -479 19 -30 35 -56
35 -58 0 -2 21 -32 46 -66 150 -207 299 -364 484 -512 114 -91 350 -236 455
-278 22 -9 58 -24 80 -34 22 -10 42 -18 45 -19 3 -1 12 -5 20 -8 19 -8 141
-48 155 -51 6 -2 28 -8 51 -14 22 -7 63 -16 90 -22 27 -5 58 -11 69 -14 27 -5
107 -16 186 -25 116 -12 605 -1 631 15 4 3 8 2 8 -1 0 -7 -186 -95 -212 -100
-9 -2 -25 -8 -35 -13 -50 -26 -306 -99 -403 -116 -19 -3 -46 -8 -60 -11 -25
-5 -65 -11 -150 -22 -59 -7 -397 -8 -480 0 -156 13 -338 50 -500 102 -137 44
-214 75 -345 140 -383 189 -700 467 -946 830 -53 79 -66 100 -100 163 -9 18
-22 38 -27 45 -6 7 -11 15 -11 20 0 4 -12 29 -25 55 -53 104 -142 339 -161
422 -2 8 -13 54 -24 101 -20 85 -34 161 -48 269 -15 111 -7 529 11 625 7 36
19 110 22 130 1 11 3 21 3 23 1 1 1 4 2 7 0 2 7 28 15 57 8 29 17 64 20 78 17
86 106 317 177 455 55 108 126 228 139 233 4 2 8 8 8 14 0 11 122 176 178 240
73 83 218 225 297 289 76 63 220 169 229 169 2 0 28 16 58 35 48 32 238 129
329 169 107 46 386 128 477 141 26 3 58 9 111 20 14 2 61 7 105 11 45 3 82 7
84 9 5 4 372 -4 412 -9z m-1375 -1649 c17 -7 32 -14 35 -17 3 -3 23 -13 45
-23 198 -91 316 -241 328 -418 5 -82 28 -126 75 -146 49 -20 99 -11 135 26 25
24 30 39 34 88 5 80 28 166 58 217 63 108 200 209 390 287 65 27 98 39 106 39
8 0 15 -18 25 -62 3 -13 11 -43 16 -68 13 -51 15 -247 5 -300 -4 -19 -15 -60
-24 -90 -9 -30 -16 -58 -15 -62 1 -5 -3 -8 -8 -8 -6 0 -10 -6 -10 -13 0 -25
-90 -164 -142 -218 -60 -63 -140 -129 -156 -129 -6 0 -12 -3 -14 -7 -7 -18
-149 -79 -218 -94 -147 -33 -282 -29 -415 12 -390 120 -621 508 -540 909 13
67 19 87 36 126 l18 43 103 -41 c57 -22 117 -45 133 -51z m1553 -748 c17 -11
47 -27 65 -37 17 -11 140 -81 272 -157 132 -76 260 -149 285 -163 25 -14 59
-34 75 -44 17 -10 37 -21 45 -25 8 -4 79 -44 158 -90 79 -46 147 -83 153 -83
5 0 9 -4 9 -10 0 -5 5 -10 10 -10 9 0 53 -24 148 -81 15 -9 54 -31 87 -49 33
-18 98 -55 145 -83 78 -46 127 -74 205 -116 44 -24 120 -68 202 -118 40 -24
74 -43 77 -43 2 0 55 -30 117 -66 188 -110 213 -124 239 -137 14 -6 27 -14 30
-17 6 -6 45 -29 82 -47 43 -22 43 -33 1 -34 -21 -1 -51 -2 -68 -4 -169 -19
-600 -24 -800 -10 -117 8 -118 8 -210 19 -103 13 -177 24 -215 31 -113 22
-305 70 -352 88 -10 4 -26 10 -35 14 -10 3 -20 7 -23 8 -32 8 -100 35 -168 66
-45 22 -83 38 -85 36 -1 -1 -16 8 -34 21 -17 12 -34 22 -37 22 -4 0 -42 23
-84 52 -146 97 -285 259 -368 428 -31 62 -91 214 -99 250 -2 8 -13 53 -24 100
-11 47 -23 110 -27 140 -3 30 -8 57 -9 58 -2 2 14 33 36 68 21 35 39 68 39 72
0 4 5 13 11 19 8 8 25 3 63 -19 28 -17 66 -39 84 -49z m-1718 -289 c3 -3 21
-17 40 -30 19 -13 37 -27 40 -30 3 -3 14 -10 25 -16 11 -6 41 -22 66 -37 48
-26 201 -82 254 -92 157 -30 303 -28 453 6 112 25 271 95 349 155 27 21 67 35
50 18 -3 -3 1 -23 8 -45 8 -21 13 -39 11 -39 -2 0 3 -21 11 -47 8 -27 17 -59
19 -73 3 -13 9 -29 13 -35 5 -5 14 -28 21 -50 21 -69 108 -234 172 -327 148
-217 383 -396 673 -513 50 -20 99 -40 110 -45 17 -7 57 -21 75 -25 3 -1 31 -9
62 -19 32 -9 60 -17 63 -17 2 0 23 -6 46 -14 22 -8 43 -14 47 -13 4 1 26 -4
48 -10 23 -7 54 -14 70 -16 16 -3 39 -7 50 -9 27 -7 91 -18 124 -22 108 -14
138 -17 157 -18 25 -1 22 -7 -26 -60 -40 -43 -107 -83 -203 -121 -72 -28 -228
-71 -293 -81 -22 -3 -47 -7 -55 -10 -61 -18 -256 -30 -490 -30 -261 1 -308 5
-460 41 -128 30 -134 32 -137 34 -2 2 -6 3 -10 4 -53 12 -187 67 -298 123 -77
38 -310 183 -325 202 -3 3 -32 28 -65 56 -66 55 -203 191 -250 248 -16 20 -43
51 -58 69 -37 42 -177 253 -177 266 0 6 -3 12 -7 14 -12 5 -101 192 -139 290
-30 77 -80 242 -99 322 -6 27 -5 28 12 15 10 -8 20 -16 23 -19z"/>
<path d="M3157 5774 c-1 -1 -26 -5 -55 -8 -99 -12 -260 -56 -289 -79 -7 -5
-13 -6 -13 -3 0 4 -13 -2 -29 -13 -16 -12 -32 -21 -36 -21 -10 0 -149 -92
-157 -104 -10 -15 -2 -20 72 -46 36 -13 92 -34 125 -48 55 -22 62 -23 90 -9
16 8 41 19 55 24 14 6 39 16 55 23 107 43 332 48 460 11 39 -12 107 -39 152
-62 75 -38 83 -40 105 -26 12 8 67 32 121 52 53 21 97 41 97 44 0 13 -153 118
-222 153 -96 49 -215 87 -328 104 -35 5 -198 12 -203 8z"/>
</g>
</svg>
